<?xml version="1.0" standalone="no"?>
<!DOCTYPE svg PUBLIC "-//W3C//DTD SVG 20010904//EN"
 "http://www.w3.org/TR/2001/REC-SVG-20010904/DTD/svg10.dtd">
<svg version="1.0" xmlns="http://www.w3.org/2000/svg"
 width="700.000000pt" height="700.000000pt" viewBox="0 0 700.000000 700.000000"
 preserveAspectRatio="xMidYMid meet">
<metadata>
Created by potrace 1.11, written by Peter Selinger 2001-2013
</metadata>
<g transform="translate(0.000000,700.000000) scale(0.100000,-0.100000)"
fill="#000000" stroke="none">
<path d="M2697 6757 c-43 -27 -97 -87 -162 -180 l-53 -78 -44 38 c-23 21 -49
44 -57 51 -30 29 -169 130 -212 155 -49 29 -90 35 -107 14 -14 -17 2 -96 33
-165 30 -65 30 -65 6 -57 -11 3 -28 7 -38 9 -10 2 -54 12 -98 21 -172 36 -304
55 -386 55 -76 0 -105 -15 -95 -48 10 -29 106 -106 208 -167 132 -77 127 -71
66 -85 -29 -6 -64 -14 -78 -16 -47 -9 -195 -53 -264 -78 -167 -61 -192 -121
-71 -172 42 -17 115 -37 175 -48 19 -3 44 -8 55 -10 37 -7 188 -28 294 -41 83
-10 106 -16 157 -40 58 -28 127 -97 168 -168 27 -46 84 -197 93 -247 2 -14 9
-43 15 -65 5 -22 12 -53 14 -70 2 -16 6 -41 9 -55 3 -14 7 -43 10 -65 2 -22 6
-58 9 -80 3 -22 8 -74 11 -115 3 -41 7 -100 10 -130 2 -30 7 -94 10 -141 l6
-86 -146 -1 c-126 0 -222 -8 -360 -27 -162 -23 -423 -108 -571 -186 -151 -79
-354 -238 -460 -359 -92 -105 -115 -134 -160 -195 -178 -241 -311 -530 -388
-840 -27 -109 -39 -176 -51 -275 -3 -25 -8 -65 -11 -90 -16 -116 -10 -439 10
-575 3 -22 8 -60 11 -85 3 -25 8 -53 11 -63 3 -11 7 -29 9 -40 14 -91 73 -304
105 -382 5 -11 20 -51 34 -90 33 -95 45 -120 90 -195 97 -161 254 -323 426
-441 36 -24 74 -52 84 -61 11 -10 23 -18 27 -18 4 0 36 -17 70 -38 70 -42 257
-137 329 -165 25 -10 54 -23 65 -27 145 -64 474 -164 680 -206 44 -9 89 -18
100 -20 11 -3 47 -9 80 -15 33 -5 71 -12 85 -14 52 -9 136 -20 225 -30 33 -4
73 -9 90 -11 166 -19 657 -25 845 -11 199 16 385 39 520 64 47 9 119 17 160
19 126 4 207 14 286 34 126 33 266 101 261 129 -1 9 37 30 108 61 458 195 824
458 1101 790 70 84 190 250 181 250 -3 0 11 37 30 82 30 72 69 191 103 318 42
155 63 465 45 675 -8 101 -34 271 -50 335 -8 30 -16 66 -18 80 -5 24 -43 158
-53 185 -3 8 10 15 38 20 65 12 65 12 113 35 113 55 226 197 283 355 37 104
50 167 59 281 l6 81 -64 14 c-39 8 -119 14 -204 14 -132 -1 -146 -3 -238 -34
-107 -36 -237 -100 -267 -131 -41 -42 -47 -43 -92 -13 -90 62 -282 151 -358
167 -14 3 -43 10 -65 15 -107 26 -263 29 -365 7 -73 -16 -140 -40 -140 -51 0
-37 36 -137 72 -198 51 -88 194 -233 298 -302 198 -132 476 -239 631 -244 25
-1 28 -6 43 -73 40 -172 60 -434 41 -533 -21 -113 -31 -148 -60 -211 -58 -126
-152 -206 -285 -243 -94 -26 -287 -26 -405 0 -272 60 -425 206 -606 579 -150
307 -259 522 -304 597 -58 96 -128 206 -135 213 -3 3 -23 30 -44 60 -121 171
-316 383 -457 495 -277 223 -589 375 -951 466 -68 17 -124 32 -125 33 -2 2 22
74 53 162 31 87 59 170 64 184 53 168 183 447 263 566 118 176 213 241 382
259 33 4 71 9 85 11 14 2 48 6 75 9 105 12 214 37 288 66 210 83 70 189 -368
277 -55 12 -119 24 -143 27 l-43 7 69 73 c89 93 149 175 168 227 12 36 12 44
-1 64 -8 12 -28 25 -45 29 -33 7 -123 0 -180 -15 -19 -5 -48 -11 -65 -14 -33
-6 -318 -104 -377 -130 -29 -12 -38 -13 -39 -4 -18 270 -82 372 -192 305z"/>
</g>
</svg>
